# xmcd
#
# Track frame offsets: 
#        150
#        15713
#        30044
#        43268
#        57694
#        71913
#        85009
#        97773
#        112316
#        127107
#        140765
#        155787
#        168845
#        184264
#        199763
#        214467
#        228886
#        241877
#        254594
#        266824
#
# Disc length: 3709 seconds
#
# Revision: 0
# Processed by: cddbd v1.5.2PL0 Copyright (c) Steve Scherf et al.
# Submitted via: ExactAudioCopyFreeDBPlugin 1.0
#
DISCID=2e0e7b14
DTITLE=Various Artist - Memphis Blues Vol. 3 (1927-1930)
DYEAR=2009
DGENRE=Blues
TTITLE0=Memphis Jug Band - Sun Brimmer's Blues
TTITLE1=Memphis Jug Band - Stingy Woman Blues
TTITLE2=Memphis Jug Band - Memphis Jug-Blues
TTITLE3=Memphis Jug Band - Newport News Blues
TTITLE4=Memphis Jug Band - Snitchin' Gambler Blues
TTITLE5=Memphis Jug Band - She Stays Out All Night Long
TTITLE6=Memphis Jug Band - Lindberg Hop (Overseas Stomp)
TTITLE7=Memphis Jug Band - Stealin' Stealin'
TTITLE8=Will Weldon - Turpentine Blues
TTITLE9=Will Weldon - Hitch Me to Your Buggy
TTITLE10=Vol Stevens - Vol Stevens Blues
TTITLE11=Vol Stevens - Baby Got the Rickets
TTITLE12=Will Shade - Better Leave That Stuff Alone
TTITLE13=Will Shade - She Stabbed Me with an Ice-Pick
TTITLE14=Hattie Hart - Won't You Be Kind to Me?
TTITLE15=Hattie Hart - You Wouldn't Would You Papa?
TTITLE16=Kaiser Clifton - Cash Money Blues
TTITLE17=Kaiser Clifton - Fort Worth and Denver Blues
TTITLE18=Kaiser Clifton - She'll Be Back Someday
TTITLE19=Kaiser Clifton - Teach Me Right from Wrong
EXTD=
EXTT0=
EXTT1=
EXTT2=
EXTT3=
EXTT4=
EXTT5=
EXTT6=
EXTT7=
EXTT8=
EXTT9=
EXTT10=
EXTT11=
EXTT12=
EXTT13=
EXTT14=
EXTT15=
EXTT16=
EXTT17=
EXTT18=
EXTT19=
PLAYORDER=
